<svg viewBox="0 0 330 200" xmlns="http://www.w3.org/2000/svg"><g><g><g><g><g><line x1="50" y1="177.04351647410255" x2="45" y2="177.04351647410255" style="visibility: inherit;" fill="rgb(0, 0, 0)" stroke="rgb(204, 204, 204)" stroke-width="1px"></line><line x1="50" y1="171.17549563194322" x2="45" y2="171.17549563194322" style="visibility: inherit;" fill="rgb(0, 0, 0)" stroke="rgb(204, 204, 204)" stroke-width="1px"></line><line x1="50" y1="132.57088102072385" x2="45" y2="132.57088102072385" style="visibility: inherit;" fill="rgb(0, 0, 0)" stroke="rgb(204, 204, 204)" stroke-width="1px"></line><line x1="50" y1="109.9886291183685" x2="45" y2="109.9886291183685" style="visibility: inherit;" fill="rgb(0, 0, 0)" stroke="rgb(204, 204, 204)" stroke-width="1px"></line><line x1="50" y1="93.96626640950451" x2="45" y2="93.96626640950451" style="visibility: inherit;" fill="rgb(0, 0, 0)" stroke="rgb(204, 204, 204)" stroke-width="1px"></line><line x1="50" y1="81.53835637385382" x2="45" y2="81.53835637385382" style="visibility: inherit;" fill="rgb(0, 0, 0)" stroke="rgb(204, 204, 204)" stroke-width="1px"></line><line x1="50" y1="71.38401450714915" x2="45" y2="71.38401450714915" style="visibility: inherit;" fill="rgb(0, 0, 0)" stroke="rgb(204, 204, 204)" stroke-width="1px"></line><line x1="50" y1="62.79864078899965" x2="45" y2="62.79864078899965" style="visibility: inherit;" fill="rgb(0, 0, 0)" stroke="rgb(204, 204, 204)" stroke-width="1px"></line><line x1="50" y1="55.36165179828515" x2="45" y2="55.36165179828515" style="visibility: inherit;" fill="rgb(0, 0, 0)" stroke="rgb(204, 204, 204)" stroke-width="1px"></line><line x1="50" y1="48.801762604793765" x2="45" y2="48.801762604793765" style="visibility: inherit;" fill="rgb(0, 0, 0)" stroke="rgb(204, 204, 204)" stroke-width="1px"></line><line x1="50" y1="42.93374176263447" x2="45" y2="42.93374176263447" style="visibility: inherit;" fill="rgb(0, 0, 0)" stroke="rgb(204, 204, 204)" stroke-width="1px"></line><line x1="50" y1="4.329127151415122" x2="45" y2="4.329127151415122" style="visibility: inherit;" fill="rgb(0, 0, 0)" stroke="rgb(204, 204, 204)" stroke-width="1px"></line></g><g transform="translate(40, 0)"><text x="0" y="177.04351647410255" dx="0em" dy="0.3em" style="text-anchor: end; visibility: hidden; font-family: &quot;Helvetica Neue&quot;, sans-serif; font-size: 12px; font-weight: 200;" fill="rgb(50, 49, 63)" stroke="none" stroke-width="1px">0.09</text><text x="0" y="171.17549563194322" dx="0em" dy="0.3em" style="text-anchor: end; visibility: inherit; font-family: &quot;Helvetica Neue&quot;, sans-serif; font-size: 12px; font-weight: 200;" fill="rgb(50, 49, 63)" stroke="none" stroke-width="1px">0.1</text><text x="0" y="132.57088102072385" dx="0em" dy="0.3em" style="text-anchor: end; visibility: hidden; font-family: &quot;Helvetica Neue&quot;, sans-serif; font-size: 12px; font-weight: 200;" fill="rgb(50, 49, 63)" stroke="none" stroke-width="1px">0.2</text><text x="0" y="109.9886291183685" dx="0em" dy="0.3em" style="text-anchor: end; visibility: hidden; font-family: &quot;Helvetica Neue&quot;, sans-serif; font-size: 12px; font-weight: 200;" fill="rgb(50, 49, 63)" stroke="none" stroke-width="1px">0.3</text><text x="0" y="93.96626640950451" dx="0em" dy="0.3em" style="text-anchor: end; visibility: hidden; font-family: &quot;Helvetica Neue&quot;, sans-serif; font-size: 12px; font-weight: 200;" fill="rgb(50, 49, 63)" stroke="none" stroke-width="1px">0.4</text><text x="0" y="81.53835637385382" dx="0em" dy="0.3em" style="text-anchor: end; visibility: inherit; font-family: &quot;Helvetica Neue&quot;, sans-serif; font-size: 12px; font-weight: 200;" fill="rgb(50, 49, 63)" stroke="none" stroke-width="1px">0.5</text><text x="0" y="71.38401450714915" dx="0em" dy="0.3em" style="text-anchor: end; visibility: hidden; font-family: &quot;Helvetica Neue&quot;, sans-serif; font-size: 12px; font-weight: 200;" fill="rgb(50, 49, 63)" stroke="none" stroke-width="1px">0.6</text><text x="0" y="62.79864078899965" dx="0em" dy="0.3em" style="text-anchor: end; visibility: hidden; font-family: &quot;Helvetica Neue&quot;, sans-serif; font-size: 12px; font-weight: 200;" fill="rgb(50, 49, 63)" stroke="none" stroke-width="1px">0.7</text><text x="0" y="55.36165179828515" dx="0em" dy="0.3em" style="text-anchor: end; visibility: hidden; font-family: &quot;Helvetica Neue&quot;, sans-serif; font-size: 12px; font-weight: 200;" fill="rgb(50, 49, 63)" stroke="none" stroke-width="1px">0.8</text><text x="0" y="48.801762604793765" dx="0em" dy="0.3em" style="text-anchor: end; visibility: inherit; font-family: &quot;Helvetica Neue&quot;, sans-serif; font-size: 12px; font-weight: 200;" fill="rgb(50, 49, 63)" stroke="none" stroke-width="1px">0.9</text><text x="0" y="42.93374176263447" dx="0em" dy="0.3em" style="text-anchor: end; visibility: hidden; font-family: &quot;Helvetica Neue&quot;, sans-serif; font-size: 12px; font-weight: 200;" fill="rgb(50, 49, 63)" stroke="none" stroke-width="1px">1</text><text x="0" y="4.329127151415122" dx="0em" dy="0.3em" style="text-anchor: end; visibility: hidden; font-family: &quot;Helvetica Neue&quot;, sans-serif; font-size: 12px; font-weight: 200;" fill="rgb(50, 49, 63)" stroke="none" stroke-width="1px">2</text></g><line x1="50" y1="0" x2="50" y2="178" fill="rgb(0, 0, 0)" stroke="rgb(204, 204, 204)" stroke-width="1px"></line></g></g><g transform="translate(50, 0)" clip-path="url(#clip_0)"><clipPath id="clip_0"><rect width="280" height="178"></rect></clipPath><g><g><g><line x1="0" y1="0" x2="0" y2="178" fill="rgb(0, 0, 0)" stroke="rgb(60, 60, 60)" stroke-width="1px" opacity="0.25"></line><line x1="25.454545454545457" y1="0" x2="25.454545454545457" y2="178" fill="rgb(0, 0, 0)" stroke="rgb(60, 60, 60)" stroke-width="1px" opacity="0.25"></line><line x1="50.909090909090914" y1="0" x2="50.909090909090914" y2="178" fill="rgb(0, 0, 0)" stroke="rgb(60, 60, 60)" stroke-width="1px" opacity="0.25"></line><line x1="76.36363636363636" y1="0" x2="76.36363636363636" y2="178" fill="rgb(0, 0, 0)" stroke="rgb(60, 60, 60)" stroke-width="1px" opacity="0.25"></line><line x1="101.81818181818183" y1="0" x2="101.81818181818183" y2="178" fill="rgb(0, 0, 0)" stroke="rgb(60, 60, 60)" stroke-width="1px" opacity="0.25"></line><line x1="127.27272727272727" y1="0" x2="127.27272727272727" y2="178" fill="rgb(0, 0, 0)" stroke="rgb(60, 60, 60)" stroke-width="1px" opacity="0.25"></line><line x1="152.72727272727272" y1="0" x2="152.72727272727272" y2="178" fill="rgb(0, 0, 0)" stroke="rgb(60, 60, 60)" stroke-width="1px" opacity="0.25"></line><line x1="178.1818181818182" y1="0" x2="178.1818181818182" y2="178" fill="rgb(0, 0, 0)" stroke="rgb(60, 60, 60)" stroke-width="1px" opacity="0.25"></line><line x1="203.63636363636365" y1="0" x2="203.63636363636365" y2="178" fill="rgb(0, 0, 0)" stroke="rgb(60, 60, 60)" stroke-width="1px" opacity="0.25"></line><line x1="229.0909090909091" y1="0" x2="229.0909090909091" y2="178" fill="rgb(0, 0, 0)" stroke="rgb(60, 60, 60)" stroke-width="1px" opacity="0.25"></line><line x1="254.54545454545453" y1="0" x2="254.54545454545453" y2="178" fill="rgb(0, 0, 0)" stroke="rgb(60, 60, 60)" stroke-width="1px" opacity="0.25"></line><line x1="280" y1="0" x2="280" y2="178" fill="rgb(0, 0, 0)" stroke="rgb(60, 60, 60)" stroke-width="1px" opacity="0.25"></line></g><g><line x1="0" y1="177.04351647410255" x2="280" y2="177.04351647410255" fill="rgb(0, 0, 0)" stroke="rgb(60, 60, 60)" stroke-width="1px" opacity="0.25"></line><line x1="0" y1="171.17549563194322" x2="280" y2="171.17549563194322" fill="rgb(0, 0, 0)" stroke="rgb(60, 60, 60)" stroke-width="1px" opacity="0.25"></line><line x1="0" y1="132.57088102072385" x2="280" y2="132.57088102072385" fill="rgb(0, 0, 0)" stroke="rgb(60, 60, 60)" stroke-width="1px" opacity="0.25"></line><line x1="0" y1="109.9886291183685" x2="280" y2="109.9886291183685" fill="rgb(0, 0, 0)" stroke="rgb(60, 60, 60)" stroke-width="1px" opacity="0.25"></line><line x1="0" y1="93.96626640950451" x2="280" y2="93.96626640950451" fill="rgb(0, 0, 0)" stroke="rgb(60, 60, 60)" stroke-width="1px" opacity="0.25"></line><line x1="0" y1="81.53835637385382" x2="280" y2="81.53835637385382" fill="rgb(0, 0, 0)" stroke="rgb(60, 60, 60)" stroke-width="1px" opacity="0.25"></line><line x1="0" y1="71.38401450714915" x2="280" y2="71.38401450714915" fill="rgb(0, 0, 0)" stroke="rgb(60, 60, 60)" stroke-width="1px" opacity="0.25"></line><line x1="0" y1="62.79864078899965" x2="280" y2="62.79864078899965" fill="rgb(0, 0, 0)" stroke="rgb(60, 60, 60)" stroke-width="1px" opacity="0.25"></line><line x1="0" y1="55.36165179828515" x2="280" y2="55.36165179828515" fill="rgb(0, 0, 0)" stroke="rgb(60, 60, 60)" stroke-width="1px" opacity="0.25"></line><line x1="0" y1="48.801762604793765" x2="280" y2="48.801762604793765" fill="rgb(0, 0, 0)" stroke="rgb(60, 60, 60)" stroke-width="1px" opacity="0.25"></line><line x1="0" y1="42.93374176263447" x2="280" y2="42.93374176263447" fill="rgb(0, 0, 0)" stroke="rgb(60, 60, 60)" stroke-width="1px" opacity="0.25"></line><line x1="0" y1="4.329127151415122" x2="280" y2="4.329127151415122" fill="rgb(0, 0, 0)" stroke="rgb(60, 60, 60)" stroke-width="1px" opacity="0.25"></line></g></g></g><g><g><line x1="25.454545454545457" y1="0" x2="25.454545454545457" y2="178" fill="rgb(0, 0, 0)" stroke="rgb(153, 153, 153)" stroke-width="1.5px"></line></g></g><g><g><g><g><g><path stroke="rgb(238, 51, 119)" stroke-width="2px" d="M25.454545454545457,-1.5090053950050901L26.727272727272727,4.295104370852528L28,7.403516649532008L29.27272727272727,9.7421208783949L30.545454545454543,12.894554379873085L31.818181818181817,16.41105089259571L33.09090909090909,19.85333182307599L34.36363636363637,22.265372517735983L35.63636363636363,23.403659049780345L36.90909090909091,25.575743406621143L38.18181818181818,28.1830069024916L39.45454545454545,28.96968552452512L40.72727272727273,32.63838007632586L42,34.1672291737797L43.27272727272727,34.923786133655085L44.54545454545455,35.66407997405267L45.81818181818182,36.719483069930476L47.09090909090909,38.39872332856851L48.36363636363637,42.6292926455682L49.63636363636364,42.501918765973215L50.909090909090914,42.99886511465115L52.18181818181819,44.05555713629542L53.45454545454545,42.96617434254375L54.72727272727273,44.866018871699936L56,48.94066212578622L57.27272727272727,51.111253967997015L58.54545454545454,48.54776296494697L59.81818181818181,48.276284414657084L61.090909090909086,49.526437632004246L62.36363636363636,50.34342137418919L63.63636363636363,55.04907069517242L64.9090909090909,57.858685369257216L66.18181818181819,54.56257538575946L67.45454545454545,54.30030775471985L68.72727272727273,55.53201905425007L70,55.52753228608569L71.27272727272727,62.68121638028964L72.54545454545455,61.1632384449168L73.81818181818181,60.19996350096072L75.0909090909091,62.21864475272437L76.36363636363636,60.367339464099175L77.63636363636364,60.74101759361265L78.9090909090909,67.54796002240289L80.18181818181819,66.3550763927274L81.45454545454545,67.2999344502996L82.72727272727273,65.26325950122214L84,65.85536047661135L85.27272727272728,66.57827009397953L86.54545454545455,74.3249407955707L87.81818181818183,73.7900043929293L89.0909090909091,71.0395691902618L90.36363636363637,70.50711409748047L91.63636363636364,72.07397221830708L92.90909090909092,69.45696344312039L94.18181818181819,79.80058736540325L95.45454545454545,79.43531952194714L96.72727272727273,78.78447643336696L98,77.52070594714074L99.27272727272728,76.67108363766509L100.54545454545455,75.64295438823237L101.81818181818183,85.73671596682381L103.0909090909091,84.35500947021443L104.36363636363637,83.07737101683338L105.63636363636363,83.87621909172385L106.9090909090909,80.33305106110188L108.18181818181817,83.08326842899919L109.45454545454545,91.82232907896393L110.72727272727272,91.58773919608797L112,88.95245388670833L113.27272727272727,88.0280225714185L114.54545454545455,87.44206173302311L115.81818181818181,86.03031218151264L117.09090909090908,98.99627911590439L118.36363636363636,95.3888242563668L119.63636363636363,94.03183844202538L120.9090909090909,93.56213903041512L122.18181818181817,92.837026820727L123.45454545454545,92.6321216417965L124.72727272727272,102.14292990813723L126,102.56329253015059L127.27272727272727,101.51771727293456L128.54545454545456,97.24622751065675L129.8181818181818,97.40859438017814L131.0909090909091,96.05161902329975L132.36363636363637,109.95660137785958L133.63636363636365,105.93406436029863L134.9090909090909,106.97656046505465L136.1818181818182,100.0851933692763L137.45454545454547,102.65004973549811L138.72727272727275,102.80079419167218L140,116.24635309914444L141.27272727272725,113.6677813147218L142.54545454545453,108.13265858670891L143.8181818181818,110.71802021237832L145.0909090909091,106.38043391025879L146.36363636363635,107.1872735575755L147.63636363636363,120.84086580333489L148.9090909090909,115.85391831456144L150.1818181818182,114.50821863925853L151.45454545454544,112.14700674112504L152.72727272727272,109.92456109671292L154,111.41132034924348L155.27272727272728,124.58171246385182L156.54545454545453,121.30270208964666L157.8181818181818,120.03712130262599L159.0909090909091,114.48923638409046L160.36363636363637,119.89233034500876L161.63636363636363,113.2878110475166L162.9090909090909,129.4322496858906L164.18181818181816,132.1521434198831L165.45454545454547,126.28332071230972L166.72727272727272,122.03675143166008L168,121.62107201355697L169.27272727272725,119.4986742746043L170.54545454545456,133.46480129219745L171.8181818181818,132.20557357919475L173.0909090909091,127.57772162011963L174.36363636363635,126.44149044172298L175.63636363636365,126.11394258910234L176.9090909090909,121.44504675204914L178.1818181818182,141.3972251778584L179.45454545454544,128.16974137473625L180.72727272727275,131.64091225720546L182,131.57645558495346L183.27272727272728,130.16678146509815L184.54545454545453,125.61263078070687L185.81818181818184,142.89926723198815L187.0909090909091,134.00588752635986L188.36363636363637,135.1347189634939L189.63636363636363,136.62952791637312L190.9090909090909,133.9822229825558L192.1818181818182,127.45875925095038L193.45454545454547,145.21769719380728L194.72727272727272,144.03206991200656L196,134.93898797717074L197.27272727272728,140.4137427442254L198.54545454545456,133.19860460244772L199.8181818181818,134.34545208000196L201.0909090909091,145.79068859090893L202.36363636363637,145.44536592620872L203.63636363636365,138.6851489270534L204.9090909090909,135.38235504866861L206.1818181818182,133.75973479928513L207.45454545454547,135.49968083019962L208.72727272727275,154.84171959027702L210,144.58393115457955L211.27272727272725,146.23537748264812L212.54545454545453,141.78485052309603L213.8181818181818,137.3883761808648L215.0909090909091,136.5492203657878L216.36363636363635,160.1831013470726L217.63636363636363,148.77784367435513L218.9090909090909,148.2100628432496L220.1818181818182,140.27106289387598L221.45454545454544,146.31444401907783L222.72727272727272,148.07422048531336L224,154.33651526151309L225.27272727272728,151.41188024076263L226.54545454545453,147.8168808556002L227.8181818181818,149.21606029026424L229.0909090909091,144.04630455340904L230.36363636363637,147.2275451296236L231.63636363636363,154.49343548434533L232.9090909090909,156.3932207812305L234.18181818181816,151.38172925276797L235.45454545454547,151.16924483242914L236.72727272727272,145.93637884330207L238,148.73287540469343L239.27272727272725,159.8208834562088L240.54545454545456,150.95952497521756L241.8181818181818,151.34011954368242L243.0909090909091,155.83106430232803L244.36363636363635,145.40142533496822L245.63636363636365,154.7570907999374L246.9090909090909,160.50865451271173L248.1818181818182,163.93714978830042L249.45454545454544,148.05019499507034L250.72727272727275,155.92481409173007L252,161.40365256968687L253.27272727272728,149.852543703157" style="fill: none;" fill="none"></path></g><g><path stroke="rgb(51, 187, 238)" stroke-width="2px" d="M25.454545454545457,-2.152646541723982L26.727272727272727,3.5809045421453334L28,6.527494769586269L29.27272727272727,9.142881589063961L30.545454545454543,12.962929229454403L31.818181818181817,14.758542480619269L33.09090909090909,19.279121691761446L34.36363636363637,21.993930544022987L35.63636363636363,22.635343107216585L36.90909090909091,25.428571428571445L38.18181818181818,27.671824880079015L39.45454545454545,28.521948805320392L40.72727272727273,31.666818320974784L42,32.83905074456345L43.27272727272727,33.46629914243886L44.54545454545455,34.578464667866086L45.81818181818182,35.1911786579746L47.09090909090909,37.351338118444346L48.36363636363637,40.8553949010045L49.63636363636364,41.994036907062025L50.909090909090914,41.375008887966914L52.18181818181819,43.12341789999371L53.45454545454545,41.38861351979543L54.72727272727273,43.8811252988541L56,47.99928711816705L57.27272727272727,48.99025218326193L58.54545454545454,47.65844458947953L59.81818181818181,47.41147093138224L61.090909090909086,47.46557959163371L62.36363636363636,49.52424042504899L63.63636363636363,53.52614623420155L64.9090909090909,55.81638722128838L66.18181818181819,53.90145002208422L67.45454545454545,54.712865383531366L68.72727272727273,55.26072101424121L70,53.35942612459422L71.27272727272727,62.23651479975358L72.54545454545455,58.856174971478L73.81818181818181,58.620635887295165L75.0909090909091,60.98933901984243L76.36363636363636,59.273806448275806L77.63636363636364,60.204530604980434L78.9090909090909,66.71978381706536L80.18181818181819,65.07074749593477L81.45454545454545,65.79714549645742L82.72727272727273,64.48455446489903L84,63.37509100371405L85.27272727272728,64.39190874365752L86.54545454545455,73.05758377987588L87.81818181818183,73.09838759222002L89.0909090909091,67.80815110084838L90.36363636363637,69.76195333144737L91.63636363636364,70.73015747785749L92.90909090909092,69.42414652716374L94.18181818181819,77.07739179160691L95.45454545454545,75.29587387264777L96.72727272727273,78.12224647575952L98,75.81148900882421L99.27272727272728,75.0540355701123L100.54545454545455,75.41303620595504L101.81818181818183,83.73226248734267L103.0909090909091,79.18936346535406L104.36363636363637,80.87358042973705L105.63636363636363,82.4002050976152L106.9090909090909,79.25472071288013L108.18181818181817,81.77622942197787L109.45454545454545,88.8558482092912L110.72727272727272,87.78740787591416L112,87.39679675789169L113.27272727272727,84.42538007575746L114.54545454545455,85.02577982136468L115.81818181818181,86.56256407053537L117.09090909090908,97.98437487283107L118.36363636363636,93.56862774154999L119.63636363636363,90.93714454200907L120.9090909090909,91.28401990395027L122.18181818181817,89.6284745486046L123.45454545454545,86.50622215947126L124.72727272727272,99.38030922147549L126,99.9238126219792L127.27272727272727,97.20258379010433L128.54545454545456,96.72718842064302L129.8181818181818,94.90256815881048L131.0909090909091,90.13584540947137L132.36363636363637,107.83755564270011L133.63636363636365,102.19562133828182L134.9090909090909,105.40648724556854L136.1818181818182,97.06435527661986L137.45454545454547,98.51436996611173L138.72727272727275,98.65235360321797L140,111.18702876888852L141.27272727272725,107.97418747694002L142.54545454545453,107.05348533235428L143.8181818181818,104.99442012433686L145.0909090909091,102.98030459875208L146.36363636363635,101.33142726194758L147.63636363636363,113.14341591276309L148.9090909090909,114.2136020651453L150.1818181818182,110.85064641396937L151.45454545454544,106.76235988015715L152.72727272727272,107.29219973348738L154,109.19783651692836L155.27272727272728,123.91717345125662L156.54545454545453,118.03088196076041L157.8181818181818,118.69042565766459L159.0909090909091,113.68738432441378L160.36363636363637,115.25485928688882L161.63636363636363,110.16927124184062L162.9090909090909,126.94789234051987L164.18181818181816,120.80259458759062L165.45454545454547,121.0231936706009L166.72727272727272,118.81019397230133L168,115.39506719771208L169.27272727272725,116.52535313435753L170.54545454545456,127.48850349043994L171.8181818181818,127.66163039715838L173.0909090909091,121.85546920016932L174.36363636363635,120.12040185707713L175.63636363636365,116.83270932634763L176.9090909090909,121.07190438516791L178.1818181818182,134.94912933872786L179.45454545454544,128.10209194648195L180.72727272727275,123.69988429598271L182,127.69569543407823L183.27272727272728,123.21852166379895L184.54545454545453,122.17244809964224L185.81818181818184,136.3478819756139L187.0909090909091,133.50708571179186L188.36363636363637,131.63506468512628L189.63636363636363,125.8601347337582L190.9090909090909,132.6650680547636L192.1818181818182,118.08222905948746L193.45454545454547,137.81350494474967L194.72727272727272,138.27068110812823L196,137.459392584272L197.27272727272728,131.73407874249006L198.54545454545456,133.39001323330785L199.8181818181818,129.95944079858612L201.0909090909091,142.90881864024976L202.36363636363637,132.92588517566503L203.63636363636365,139.48284490375895L204.9090909090909,134.62731794351086L206.1818181818182,136.27413891759997L207.45454545454547,139.21805460109098L208.72727272727275,146.00410392178583L210,142.3532333569129L211.27272727272725,140.23155734166983L212.54545454545453,138.67503558376904L213.8181818181818,136.4767638085096L215.0909090909091,135.55320477706277L216.36363636363635,152.57142857142856L217.63636363636363,145.8276400814625L218.9090909090909,146.1757299822122L220.1818181818182,139.7119518481064L221.45454545454544,144.01671261184106L222.72727272727272,137.07641471189092L224,151.3696082920242L225.27272727272728,147.86118628900977L226.54545454545453,143.02796414567126L227.8181818181818,142.4570648375124L229.0909090909091,144.78466093451547L230.36363636363637,139.60939438970476L231.63636363636363,155.47305834776256L232.9090909090909,150.91378195503776L234.18181818181816,151.14080020373254L235.45454545454547,142.16030429600949L236.72727272727272,150.80363824125504L238,145.22172786662216L239.27272727272725,157.16505422283956L240.54545454545456,154.22180932897027L241.8181818181818,152.1258640426853L243.0909090909091,144.7797731029522L244.36363636363635,147.92118058730816L245.63636363636365,147.64426954155323L246.9090909090909,158.9990258163828L248.1818181818182,158.10534969350186L249.45454545454544,158.5270197467485L250.72727272727275,150.27937492742043L252,147.57533649991186L253.27272727272728,143.84323455938534" style="fill: none;" fill="none"></path></g></g></g></g></g></g><g transform="translate(50, 178)" clip-path="url(#clip_1)"><clipPath id="clip_1"><rect width="280" height="22"></rect></clipPath><g><g><line x1="0" y1="0" x2="0" y2="5" style="visibility: inherit;" fill="rgb(0, 0, 0)" stroke="rgb(204, 204, 204)" stroke-width="1px"></line><line x1="25.454545454545457" y1="0" x2="25.454545454545457" y2="5" style="visibility: inherit;" fill="rgb(0, 0, 0)" stroke="rgb(204, 204, 204)" stroke-width="1px"></line><line x1="50.909090909090914" y1="0" x2="50.909090909090914" y2="5" style="visibility: inherit;" fill="rgb(0, 0, 0)" stroke="rgb(204, 204, 204)" stroke-width="1px"></line><line x1="76.36363636363636" y1="0" x2="76.36363636363636" y2="5" style="visibility: inherit;" fill="rgb(0, 0, 0)" stroke="rgb(204, 204, 204)" stroke-width="1px"></line><line x1="101.81818181818183" y1="0" x2="101.81818181818183" y2="5" style="visibility: inherit;" fill="rgb(0, 0, 0)" stroke="rgb(204, 204, 204)" stroke-width="1px"></line><line x1="127.27272727272727" y1="0" x2="127.27272727272727" y2="5" style="visibility: inherit;" fill="rgb(0, 0, 0)" stroke="rgb(204, 204, 204)" stroke-width="1px"></line><line x1="152.72727272727272" y1="0" x2="152.72727272727272" y2="5" style="visibility: inherit;" fill="rgb(0, 0, 0)" stroke="rgb(204, 204, 204)" stroke-width="1px"></line><line x1="178.1818181818182" y1="0" x2="178.1818181818182" y2="5" style="visibility: inherit;" fill="rgb(0, 0, 0)" stroke="rgb(204, 204, 204)" stroke-width="1px"></line><line x1="203.63636363636365" y1="0" x2="203.63636363636365" y2="5" style="visibility: inherit;" fill="rgb(0, 0, 0)" stroke="rgb(204, 204, 204)" stroke-width="1px"></line><line x1="229.0909090909091" y1="0" x2="229.0909090909091" y2="5" style="visibility: inherit;" fill="rgb(0, 0, 0)" stroke="rgb(204, 204, 204)" stroke-width="1px"></line><line x1="254.54545454545453" y1="0" x2="254.54545454545453" y2="5" style="visibility: inherit;" fill="rgb(0, 0, 0)" stroke="rgb(204, 204, 204)" stroke-width="1px"></line><line x1="280" y1="0" x2="280" y2="5" style="visibility: inherit;" fill="rgb(0, 0, 0)" stroke="rgb(204, 204, 204)" stroke-width="1px"></line></g><g transform="translate(0, 8)"><text x="0" y="0" dx="0em" dy="0.95em" style="text-anchor: middle; visibility: hidden; font-family: &quot;Helvetica Neue&quot;, sans-serif; font-size: 12px; font-weight: 200;" fill="rgb(50, 49, 63)" stroke="none" stroke-width="1px">-20</text><text x="25.454545454545457" y="0" dx="0em" dy="0.95em" style="text-anchor: middle; visibility: inherit; font-family: &quot;Helvetica Neue&quot;, sans-serif; font-size: 12px; font-weight: 200;" fill="rgb(50, 49, 63)" stroke="none" stroke-width="1px">0</text><text x="50.909090909090914" y="0" dx="0em" dy="0.95em" style="text-anchor: middle; visibility: inherit; font-family: &quot;Helvetica Neue&quot;, sans-serif; font-size: 12px; font-weight: 200;" fill="rgb(50, 49, 63)" stroke="none" stroke-width="1px">20</text><text x="76.36363636363636" y="0" dx="0em" dy="0.95em" style="text-anchor: middle; visibility: inherit; font-family: &quot;Helvetica Neue&quot;, sans-serif; font-size: 12px; font-weight: 200;" fill="rgb(50, 49, 63)" stroke="none" stroke-width="1px">40</text><text x="101.81818181818183" y="0" dx="0em" dy="0.95em" style="text-anchor: middle; visibility: inherit; font-family: &quot;Helvetica Neue&quot;, sans-serif; font-size: 12px; font-weight: 200;" fill="rgb(50, 49, 63)" stroke="none" stroke-width="1px">60</text><text x="127.27272727272727" y="0" dx="0em" dy="0.95em" style="text-anchor: middle; visibility: inherit; font-family: &quot;Helvetica Neue&quot;, sans-serif; font-size: 12px; font-weight: 200;" fill="rgb(50, 49, 63)" stroke="none" stroke-width="1px">80</text><text x="152.72727272727272" y="0" dx="0em" dy="0.95em" style="text-anchor: middle; visibility: inherit; font-family: &quot;Helvetica Neue&quot;, sans-serif; font-size: 12px; font-weight: 200;" fill="rgb(50, 49, 63)" stroke="none" stroke-width="1px">100</text><text x="178.1818181818182" y="0" dx="0em" dy="0.95em" style="text-anchor: middle; visibility: inherit; font-family: &quot;Helvetica Neue&quot;, sans-serif; font-size: 12px; font-weight: 200;" fill="rgb(50, 49, 63)" stroke="none" stroke-width="1px">120</text><text x="203.63636363636365" y="0" dx="0em" dy="0.95em" style="text-anchor: middle; visibility: inherit; font-family: &quot;Helvetica Neue&quot;, sans-serif; font-size: 12px; font-weight: 200;" fill="rgb(50, 49, 63)" stroke="none" stroke-width="1px">140</text><text x="229.0909090909091" y="0" dx="0em" dy="0.95em" style="text-anchor: middle; visibility: inherit; font-family: &quot;Helvetica Neue&quot;, sans-serif; font-size: 12px; font-weight: 200;" fill="rgb(50, 49, 63)" stroke="none" stroke-width="1px">160</text><text x="254.54545454545453" y="0" dx="0em" dy="0.95em" style="text-anchor: middle; visibility: inherit; font-family: &quot;Helvetica Neue&quot;, sans-serif; font-size: 12px; font-weight: 200;" fill="rgb(50, 49, 63)" stroke="none" stroke-width="1px">180</text><text x="280" y="0" dx="0em" dy="0.95em" style="text-anchor: middle; visibility: hidden; font-family: &quot;Helvetica Neue&quot;, sans-serif; font-size: 12px; font-weight: 200;" fill="rgb(50, 49, 63)" stroke="none" stroke-width="1px">200</text></g><line x1="0" y1="0" x2="280" y2="0" fill="rgb(0, 0, 0)" stroke="rgb(204, 204, 204)" stroke-width="1px"></line></g></g></g></g></svg>