<svg viewBox="0 0 330 200" xmlns="http://www.w3.org/2000/svg"><g><g><g><g><g><line x1="40" y1="161.81818181818184" x2="35" y2="161.81818181818184" style="visibility: inherit;" fill="rgb(0, 0, 0)" stroke="rgb(204, 204, 204)" stroke-width="1px"></line><line x1="40" y1="145.63636363636365" x2="35" y2="145.63636363636365" style="visibility: inherit;" fill="rgb(0, 0, 0)" stroke="rgb(204, 204, 204)" stroke-width="1px"></line><line x1="40" y1="129.45454545454547" x2="35" y2="129.45454545454547" style="visibility: inherit;" fill="rgb(0, 0, 0)" stroke="rgb(204, 204, 204)" stroke-width="1px"></line><line x1="40" y1="113.2727272727273" x2="35" y2="113.2727272727273" style="visibility: inherit;" fill="rgb(0, 0, 0)" stroke="rgb(204, 204, 204)" stroke-width="1px"></line><line x1="40" y1="97.09090909090911" x2="35" y2="97.09090909090911" style="visibility: inherit;" fill="rgb(0, 0, 0)" stroke="rgb(204, 204, 204)" stroke-width="1px"></line><line x1="40" y1="80.90909090909092" x2="35" y2="80.90909090909092" style="visibility: inherit;" fill="rgb(0, 0, 0)" stroke="rgb(204, 204, 204)" stroke-width="1px"></line><line x1="40" y1="64.72727272727273" x2="35" y2="64.72727272727273" style="visibility: inherit;" fill="rgb(0, 0, 0)" stroke="rgb(204, 204, 204)" stroke-width="1px"></line><line x1="40" y1="48.54545454545456" x2="35" y2="48.54545454545456" style="visibility: inherit;" fill="rgb(0, 0, 0)" stroke="rgb(204, 204, 204)" stroke-width="1px"></line><line x1="40" y1="32.363636363636346" x2="35" y2="32.363636363636346" style="visibility: inherit;" fill="rgb(0, 0, 0)" stroke="rgb(204, 204, 204)" stroke-width="1px"></line><line x1="40" y1="16.181818181818187" x2="35" y2="16.181818181818187" style="visibility: inherit;" fill="rgb(0, 0, 0)" stroke="rgb(204, 204, 204)" stroke-width="1px"></line><line x1="40" y1="0" x2="35" y2="0" style="visibility: inherit;" fill="rgb(0, 0, 0)" stroke="rgb(204, 204, 204)" stroke-width="1px"></line></g><g transform="translate(30, 0)"><text x="0" y="161.81818181818184" dx="0em" dy="0.3em" style="text-anchor: end; visibility: inherit; font-family: &quot;Helvetica Neue&quot;, sans-serif; font-size: 12px; font-weight: 200;" fill="rgb(50, 49, 63)" stroke="none" stroke-width="1px">0</text><text x="0" y="145.63636363636365" dx="0em" dy="0.3em" style="text-anchor: end; visibility: hidden; font-family: &quot;Helvetica Neue&quot;, sans-serif; font-size: 12px; font-weight: 200;" fill="rgb(50, 49, 63)" stroke="none" stroke-width="1px">0.2</text><text x="0" y="129.45454545454547" dx="0em" dy="0.3em" style="text-anchor: end; visibility: inherit; font-family: &quot;Helvetica Neue&quot;, sans-serif; font-size: 12px; font-weight: 200;" fill="rgb(50, 49, 63)" stroke="none" stroke-width="1px">0.4</text><text x="0" y="113.2727272727273" dx="0em" dy="0.3em" style="text-anchor: end; visibility: hidden; font-family: &quot;Helvetica Neue&quot;, sans-serif; font-size: 12px; font-weight: 200;" fill="rgb(50, 49, 63)" stroke="none" stroke-width="1px">0.6</text><text x="0" y="97.09090909090911" dx="0em" dy="0.3em" style="text-anchor: end; visibility: inherit; font-family: &quot;Helvetica Neue&quot;, sans-serif; font-size: 12px; font-weight: 200;" fill="rgb(50, 49, 63)" stroke="none" stroke-width="1px">0.8</text><text x="0" y="80.90909090909092" dx="0em" dy="0.3em" style="text-anchor: end; visibility: hidden; font-family: &quot;Helvetica Neue&quot;, sans-serif; font-size: 12px; font-weight: 200;" fill="rgb(50, 49, 63)" stroke="none" stroke-width="1px">1</text><text x="0" y="64.72727272727273" dx="0em" dy="0.3em" style="text-anchor: end; visibility: inherit; font-family: &quot;Helvetica Neue&quot;, sans-serif; font-size: 12px; font-weight: 200;" fill="rgb(50, 49, 63)" stroke="none" stroke-width="1px">1.2</text><text x="0" y="48.54545454545456" dx="0em" dy="0.3em" style="text-anchor: end; visibility: hidden; font-family: &quot;Helvetica Neue&quot;, sans-serif; font-size: 12px; font-weight: 200;" fill="rgb(50, 49, 63)" stroke="none" stroke-width="1px">1.4</text><text x="0" y="32.363636363636346" dx="0em" dy="0.3em" style="text-anchor: end; visibility: inherit; font-family: &quot;Helvetica Neue&quot;, sans-serif; font-size: 12px; font-weight: 200;" fill="rgb(50, 49, 63)" stroke="none" stroke-width="1px">1.6</text><text x="0" y="16.181818181818187" dx="0em" dy="0.3em" style="text-anchor: end; visibility: hidden; font-family: &quot;Helvetica Neue&quot;, sans-serif; font-size: 12px; font-weight: 200;" fill="rgb(50, 49, 63)" stroke="none" stroke-width="1px">1.8</text><text x="0" y="0" dx="0em" dy="0.3em" style="text-anchor: end; visibility: hidden; font-family: &quot;Helvetica Neue&quot;, sans-serif; font-size: 12px; font-weight: 200;" fill="rgb(50, 49, 63)" stroke="none" stroke-width="1px">2</text></g><line x1="40" y1="0" x2="40" y2="178" fill="rgb(0, 0, 0)" stroke="rgb(204, 204, 204)" stroke-width="1px"></line></g></g><g transform="translate(40, 0)" clip-path="url(#clip_0)"><clipPath id="clip_0"><rect width="290" height="178"></rect></clipPath><g><g><g><line x1="4.2895383291516245" y1="0" x2="4.2895383291516245" y2="178" fill="rgb(0, 0, 0)" stroke="rgb(60, 60, 60)" stroke-width="1px" opacity="0.25"></line><line x1="40.539538329151654" y1="0" x2="40.539538329151654" y2="178" fill="rgb(0, 0, 0)" stroke="rgb(60, 60, 60)" stroke-width="1px" opacity="0.25"></line><line x1="76.7895383291517" y1="0" x2="76.7895383291517" y2="178" fill="rgb(0, 0, 0)" stroke="rgb(60, 60, 60)" stroke-width="1px" opacity="0.25"></line><line x1="113.03953832915172" y1="0" x2="113.03953832915172" y2="178" fill="rgb(0, 0, 0)" stroke="rgb(60, 60, 60)" stroke-width="1px" opacity="0.25"></line><line x1="149.28953832915178" y1="0" x2="149.28953832915178" y2="178" fill="rgb(0, 0, 0)" stroke="rgb(60, 60, 60)" stroke-width="1px" opacity="0.25"></line><line x1="185.5395383291518" y1="0" x2="185.5395383291518" y2="178" fill="rgb(0, 0, 0)" stroke="rgb(60, 60, 60)" stroke-width="1px" opacity="0.25"></line><line x1="221.78953832915184" y1="0" x2="221.78953832915184" y2="178" fill="rgb(0, 0, 0)" stroke="rgb(60, 60, 60)" stroke-width="1px" opacity="0.25"></line><line x1="258.03953832915187" y1="0" x2="258.03953832915187" y2="178" fill="rgb(0, 0, 0)" stroke="rgb(60, 60, 60)" stroke-width="1px" opacity="0.25"></line></g><g><line x1="0" y1="161.81818181818184" x2="290" y2="161.81818181818184" fill="rgb(0, 0, 0)" stroke="rgb(60, 60, 60)" stroke-width="1px" opacity="0.25"></line><line x1="0" y1="145.63636363636365" x2="290" y2="145.63636363636365" fill="rgb(0, 0, 0)" stroke="rgb(60, 60, 60)" stroke-width="1px" opacity="0.25"></line><line x1="0" y1="129.45454545454547" x2="290" y2="129.45454545454547" fill="rgb(0, 0, 0)" stroke="rgb(60, 60, 60)" stroke-width="1px" opacity="0.25"></line><line x1="0" y1="113.2727272727273" x2="290" y2="113.2727272727273" fill="rgb(0, 0, 0)" stroke="rgb(60, 60, 60)" stroke-width="1px" opacity="0.25"></line><line x1="0" y1="97.09090909090911" x2="290" y2="97.09090909090911" fill="rgb(0, 0, 0)" stroke="rgb(60, 60, 60)" stroke-width="1px" opacity="0.25"></line><line x1="0" y1="80.90909090909092" x2="290" y2="80.90909090909092" fill="rgb(0, 0, 0)" stroke="rgb(60, 60, 60)" stroke-width="1px" opacity="0.25"></line><line x1="0" y1="64.72727272727273" x2="290" y2="64.72727272727273" fill="rgb(0, 0, 0)" stroke="rgb(60, 60, 60)" stroke-width="1px" opacity="0.25"></line><line x1="0" y1="48.54545454545456" x2="290" y2="48.54545454545456" fill="rgb(0, 0, 0)" stroke="rgb(60, 60, 60)" stroke-width="1px" opacity="0.25"></line><line x1="0" y1="32.363636363636346" x2="290" y2="32.363636363636346" fill="rgb(0, 0, 0)" stroke="rgb(60, 60, 60)" stroke-width="1px" opacity="0.25"></line><line x1="0" y1="16.181818181818187" x2="290" y2="16.181818181818187" fill="rgb(0, 0, 0)" stroke="rgb(60, 60, 60)" stroke-width="1px" opacity="0.25"></line><line x1="0" y1="0" x2="290" y2="0" fill="rgb(0, 0, 0)" stroke="rgb(60, 60, 60)" stroke-width="1px" opacity="0.25"></line></g></g></g><g><g><line x1="0" y1="161.81818181818184" x2="290" y2="161.81818181818184" fill="rgb(0, 0, 0)" stroke="rgb(153, 153, 153)" stroke-width="1.5px"></line></g></g><g><g><line x1="40.539538329151654" y1="0" x2="40.539538329151654" y2="178" fill="rgb(0, 0, 0)" stroke="rgb(153, 153, 153)" stroke-width="1.5px"></line></g></g><g><g><g><g><g><path stroke="rgb(0, 119, 187)" stroke-width="2px" d="M42.352038329151654,-5.6821881641041045L44.16453832915166,4.419015645980835L45.97703832915166,9.375659660859554L47.78953832915166,19.291426485235036L49.60203832915166,23.988964124159367L51.41453832915166,31.62338148463857L53.22703832915167,35.877330628308385L55.03953832915167,37.28001973845741L56.85203832915167,41.653404344211935L58.66453832915168,47.162028659473776L60.47703832915168,47.98460266806862L62.28953832915168,54.071162288839176L64.10203832915168,57.11103255098517L65.91453832915168,58.778489719737664L67.72703832915168,60.01552397554572L69.53953832915168,61.52019088918513L71.3520383291517,63.416054032065645L73.1645383291517,70.03754138946533L74.9770383291517,71.69077201323076L76.7895383291517,70.6542597033761L78.60203832915171,73.39803457260132L80.4145383291517,70.64823150634766L82.22703832915171,73.5712801326405L84.0395383291517,79.2688426104459L85.85203832915171,80.99948975172912L87.66453832915171,81.27628044648606L89.47703832915171,77.71400180729954L91.28953832915171,79.57082152366638L93.10203832915171,82.41486701098357L94.91453832915171,87.56656419147146L96.72703832915172,91.17536604404451L98.53953832915171,88.17971863529901L100.35203832915172,88.94774951718072L102.16453832915171,90.55659332058647L103.97703832915172,89.09182342615996L105.78953832915172,97.21968006003988L107.60203832915172,95.21803893826225L109.41453832915172,94.39636674794285L111.22703832915174,97.16980516910554L113.03953832915172,96.48383010517468L114.85203832915174,94.5567553693598L116.66453832915172,102.76062997904693L118.47703832915174,101.5236680616032L120.28953832915174,100.4233484918421L122.10203832915174,101.48322127082132L123.91453832915174,100.98980128765108L125.72703832915175,100.83070993423463L127.53953832915174,108.37592926892368L129.35203832915175,108.11039924621583L131.16453832915175,105.57618379592897L132.97703832915175,107.21794637766753L134.78953832915175,105.7785431363366L136.60203832915175,105.67793493921108L138.41453832915175,112.79654600403528L140.22703832915175,112.208647294478L142.03953832915175,113.23295371098953L143.85203832915175,111.24706788496539L145.66453832915175,110.94362773678522L147.47703832915175,109.53847429969095L149.28953832915178,118.50450591607529L151.10203832915178,116.08772938901728L152.91453832915175,114.5196892456575L154.72703832915175,116.79648139260033L156.53953832915178,113.0857017365369L158.35203832915178,115.84180788560349L160.16453832915178,122.06984205679461L161.97703832915175,121.58284330909905L163.78953832915178,119.57215748049998L165.60203832915178,119.28677298805931L167.41453832915178,119.79832096533343L169.22703832915178,119.65734796090561L171.03953832915178,127.40771889686587L172.85203832915178,124.23780113458636L174.66453832915178,124.02870468117976L176.47703832915178,122.54034524614161L178.2895383291518,122.98001782460648L180.10203832915178,122.81320314515722L181.91453832915178,128.1454834071073L183.72703832915178,127.9041674462232L185.5395383291518,127.2318691557104L187.3520383291518,126.11603782935578L189.16453832915178,126.64957184683195L190.97703832915178,118.40759179808879L192.7895383291518,131.5731355276975L194.6020383291518,131.1174400015311L196.4145383291518,131.3461980223656L198.22703832915178,128.580249033191L200.0395383291518,128.6672793193297L201.8520383291518,128.370301398364L203.6645383291518,135.71553650227463L205.4770383291518,135.01205555417323L207.28953832915184,132.18206541104752L209.1020383291518,131.98393304239622L210.9145383291518,129.45322118022227L212.7270383291518,131.11127918416804L214.53953832915184,139.08833685246384L216.35203832915184,137.0911517739296L218.1645383291518,135.7009603218599L219.9770383291518,133.56723416935316L221.78953832915184,134.06921660358256L223.60203832915184,134.4864594665441L225.41453832915184,140.5064099214294L227.2270383291518,140.17118188467896L229.03953832915184,137.91463724591517L230.85203832915184,137.8213786266067L232.66453832915184,137.36063870516693L234.47703832915184,136.4564983682199L236.28953832915184,143.8867865096439L238.10203832915184,142.44881677356636L239.91453832915184,142.28451464663854L241.72703832915184,140.63986214724457L243.53953832915187,138.72232884168625L245.35203832915184,133.99193511767822L247.16453832915184,143.68797416036782L248.97703832915184,143.52607848969376L250.78953832915187,142.41271751848137L252.60203832915187,142.37510518594223L254.41453832915184,141.5672158653086L256.22703832915187,141.22806708921087L258.03953832915187,147.19368540427902L259.85203832915187,145.84845104000786L261.66453832915187,143.6886734312231L263.47703832915187,143.19318818775093L265.28953832915187,143.51989235390317L267.10203832915187,141.80947101928973L268.91453832915187,147.9123525863344L270.72703832915187,147.62821954759687" style="fill: none;" fill="none"></path></g><g><path stroke="rgb(204, 51, 17)" stroke-width="2px" d="M42.352038329151654,-1.5873159061778779L44.16453832915166,7.899686965075404L45.97703832915166,14.426555741917014L47.78953832915166,21.886801611293464L49.60203832915166,26.57857147130099L51.41453832915166,35.11080438440496L53.22703832915167,39.45881269194862L55.03953832915167,40.90716177766976L56.85203832915167,43.51545171304181L58.66453832915168,49.380858486348956L60.47703832915168,49.227366122332484L62.28953832915168,55.788561864332735L64.10203832915168,58.2438320463354L65.91453832915168,59.43812879649077L67.72703832915168,60.797762112184L69.53953832915168,63.197167786684915L71.3520383291517,65.71489008990203L73.1645383291517,72.2467839717865L74.9770383291517,72.05607110803778L76.7895383291517,71.17089065638457L78.60203832915171,74.31984717195685L80.4145383291517,72.73222262209113L82.22703832915171,75.24736003442246L84.0395383291517,81.82314883578908L85.85203832915171,82.39130399443887L87.66453832915171,81.99899375438692L89.47703832915171,80.07999680259012L91.28953832915171,80.93361361460252L93.10203832915171,82.09578730843286L94.91453832915171,88.06525523012336L96.72703832915172,91.75586212765087L98.53953832915171,88.17044003443284L100.35203832915172,88.8508112864061L102.16453832915171,90.54206295446917L103.97703832915172,89.7278030352159L105.78953832915172,98.04336807944559L107.60203832915172,94.86236566847022L109.41453832915172,94.96143064715646L111.22703832915174,96.1259625716643L113.03953832915172,95.52104987881401L114.85203832915174,93.9171588420868L116.66453832915172,102.82276381145824L118.47703832915174,101.11795111136004L120.28953832915174,100.37136132066901L122.10203832915174,100.62157972292468L123.91453832915174,99.82201895930551L125.72703832915175,101.77955296906559L127.53953832915174,108.56939581307499L129.35203832915175,106.15063721483405L131.16453832915175,104.15289754217322L132.97703832915175,106.41890645027162L134.78953832915175,105.96549440513958L136.60203832915175,104.05734820799395L138.41453832915175,112.11020442572509L140.22703832915175,112.46917150237344L142.03953832915175,111.30377634005114L143.85203832915175,111.4478502490304L145.66453832915175,110.69553608244117L147.47703832915175,109.32710159908642L149.28953832915178,116.99096549641004L151.10203832915178,114.23941666429695L152.91453832915175,114.73498750816694L154.72703832915175,116.12011768601158L156.53953832915178,111.49512095884845L158.35203832915178,114.12863287058744L160.16453832915178,120.95596145499837L161.97703832915175,120.99108414216477L163.78953832915178,119.49121567335996L165.60203832915178,118.76846378499812L167.41453832915178,117.51028743657201L169.22703832915178,118.24014777486977L171.03953832915178,126.86903921040624L172.85203832915178,124.15610218589958L174.66453832915178,122.33509719371796L176.47703832915178,122.26047293706375L178.2895383291518,121.24389708042145L180.10203832915178,121.91821361129936L181.91453832915178,127.87452800707385L183.72703832915178,128.09126098047605L185.5395383291518,127.20899576490578L187.3520383291518,125.63556882468137L189.16453832915178,124.12604559551588L190.97703832915178,122.82149553298953L192.7895383291518,132.21471894871107L194.6020383291518,131.30137234926227L196.4145383291518,129.44662874395198L198.22703832915178,128.91665859655902L200.0395383291518,129.868262545629L201.8520383291518,129.22757853161207L203.6645383291518,136.92942489277235L205.4770383291518,133.1163660233671L207.28953832915184,129.02825499122795L209.1020383291518,130.8311585133726L210.9145383291518,130.4975098642436L212.7270383291518,129.87152259458196L214.53953832915184,138.847336769104L216.35203832915184,137.34384173696694L218.1645383291518,136.6246199607849L219.9770383291518,134.36826581304726L221.78953832915184,131.69260957024315L223.60203832915184,133.56207885525444L225.41453832915184,140.37409340793437L227.2270383291518,140.66826701164246L229.03953832915184,137.96214908361435L230.85203832915184,136.84939454902303L232.66453832915184,136.87470815398478L234.47703832915184,135.85136142644018L236.28953832915184,141.88515382734215L238.10203832915184,142.6595106991855L239.91453832915184,141.37336592782628L241.72703832915184,139.3613755973903L243.53953832915187,136.3927755030719L245.35203832915184,138.28352914615112L247.16453832915184,143.92117737369105L248.97703832915184,143.76813953573054L250.78953832915187,140.8891666748307L252.60203832915187,141.6853600875898L254.41453832915184,139.83884979378095L256.22703832915187,141.13182089545512L258.03953832915187,147.90052888068288L259.85203832915187,144.8741521347653L261.66453832915187,144.53708067536357L263.47703832915187,143.48534234545448L265.28953832915187,143.45815999941394L267.10203832915187,141.92745006897235L268.91453832915187,146.98208483782685L270.72703832915187,146.60561549392617" style="fill: none;" fill="none"></path></g></g></g></g></g></g><g transform="translate(40, 178)" clip-path="url(#clip_1)"><clipPath id="clip_1"><rect width="290" height="22"></rect></clipPath><g><g><line x1="4.2895383291516245" y1="0" x2="4.2895383291516245" y2="5" style="visibility: inherit;" fill="rgb(0, 0, 0)" stroke="rgb(204, 204, 204)" stroke-width="1px"></line><line x1="40.539538329151654" y1="0" x2="40.539538329151654" y2="5" style="visibility: inherit;" fill="rgb(0, 0, 0)" stroke="rgb(204, 204, 204)" stroke-width="1px"></line><line x1="76.7895383291517" y1="0" x2="76.7895383291517" y2="5" style="visibility: inherit;" fill="rgb(0, 0, 0)" stroke="rgb(204, 204, 204)" stroke-width="1px"></line><line x1="113.03953832915172" y1="0" x2="113.03953832915172" y2="5" style="visibility: inherit;" fill="rgb(0, 0, 0)" stroke="rgb(204, 204, 204)" stroke-width="1px"></line><line x1="149.28953832915178" y1="0" x2="149.28953832915178" y2="5" style="visibility: inherit;" fill="rgb(0, 0, 0)" stroke="rgb(204, 204, 204)" stroke-width="1px"></line><line x1="185.5395383291518" y1="0" x2="185.5395383291518" y2="5" style="visibility: inherit;" fill="rgb(0, 0, 0)" stroke="rgb(204, 204, 204)" stroke-width="1px"></line><line x1="221.78953832915184" y1="0" x2="221.78953832915184" y2="5" style="visibility: inherit;" fill="rgb(0, 0, 0)" stroke="rgb(204, 204, 204)" stroke-width="1px"></line><line x1="258.03953832915187" y1="0" x2="258.03953832915187" y2="5" style="visibility: inherit;" fill="rgb(0, 0, 0)" stroke="rgb(204, 204, 204)" stroke-width="1px"></line></g><g transform="translate(0, 8)"><text x="4.2895383291516245" y="0" dx="0em" dy="0.95em" style="text-anchor: middle; visibility: hidden; font-family: &quot;Helvetica Neue&quot;, sans-serif; font-size: 12px; font-weight: 200;" fill="rgb(50, 49, 63)" stroke="none" stroke-width="1px">-20</text><text x="40.539538329151654" y="0" dx="0em" dy="0.95em" style="text-anchor: middle; visibility: inherit; font-family: &quot;Helvetica Neue&quot;, sans-serif; font-size: 12px; font-weight: 200;" fill="rgb(50, 49, 63)" stroke="none" stroke-width="1px">0</text><text x="76.7895383291517" y="0" dx="0em" dy="0.95em" style="text-anchor: middle; visibility: inherit; font-family: &quot;Helvetica Neue&quot;, sans-serif; font-size: 12px; font-weight: 200;" fill="rgb(50, 49, 63)" stroke="none" stroke-width="1px">20</text><text x="113.03953832915172" y="0" dx="0em" dy="0.95em" style="text-anchor: middle; visibility: inherit; font-family: &quot;Helvetica Neue&quot;, sans-serif; font-size: 12px; font-weight: 200;" fill="rgb(50, 49, 63)" stroke="none" stroke-width="1px">40</text><text x="149.28953832915178" y="0" dx="0em" dy="0.95em" style="text-anchor: middle; visibility: inherit; font-family: &quot;Helvetica Neue&quot;, sans-serif; font-size: 12px; font-weight: 200;" fill="rgb(50, 49, 63)" stroke="none" stroke-width="1px">60</text><text x="185.5395383291518" y="0" dx="0em" dy="0.95em" style="text-anchor: middle; visibility: inherit; font-family: &quot;Helvetica Neue&quot;, sans-serif; font-size: 12px; font-weight: 200;" fill="rgb(50, 49, 63)" stroke="none" stroke-width="1px">80</text><text x="221.78953832915184" y="0" dx="0em" dy="0.95em" style="text-anchor: middle; visibility: inherit; font-family: &quot;Helvetica Neue&quot;, sans-serif; font-size: 12px; font-weight: 200;" fill="rgb(50, 49, 63)" stroke="none" stroke-width="1px">100</text><text x="258.03953832915187" y="0" dx="0em" dy="0.95em" style="text-anchor: middle; visibility: inherit; font-family: &quot;Helvetica Neue&quot;, sans-serif; font-size: 12px; font-weight: 200;" fill="rgb(50, 49, 63)" stroke="none" stroke-width="1px">120</text></g><line x1="0" y1="0" x2="290" y2="0" fill="rgb(0, 0, 0)" stroke="rgb(204, 204, 204)" stroke-width="1px"></line></g></g></g></g></svg>